<svg width="61" height="81" viewBox="0 0 61 81" fill="none" xmlns="http://www.w3.org/2000/svg">
<g clip-path="url(#clip0)">
<path d="M30.478 82.0798C22.9344 82.0078 15.3993 81.7837 7.96405 80.3477C6.37839 80.0411 4.79909 79.5758 3.30483 78.971C1.20052 78.1187 0.707393 76.9704 1.01772 74.7012C1.9806 67.6801 2.55238 60.6335 2.58426 53.5405C2.6204 45.1764 2.01461 36.861 0.86681 28.5816C0.624496 26.8411 0.879563 25.3946 2.02524 23.8804C4.58654 20.4903 5.59618 16.4172 6.338 12.3145C6.75673 9.99881 6.97992 7.64504 7.25199 5.30395C7.46242 3.4831 7.78338 3.06226 9.56672 2.69851C11.5414 2.2967 13.5245 1.94141 15.5034 1.56075C16.6151 1.34715 17.5482 1.55017 18.4133 2.37706C19.9076 3.80032 21.8801 4.27193 23.8271 4.5828C29.26 5.44776 34.6887 5.52177 39.9941 3.79609C40.9952 3.47042 41.8433 2.70697 42.7998 2.21634C43.3631 1.92661 44.0327 1.53326 44.5959 1.60727C46.9723 1.92026 49.3359 2.34534 51.6847 2.82117C53.213 3.12993 53.502 3.61422 53.704 5.20667C54.0526 7.96226 54.3501 10.7305 54.8518 13.4586C55.4746 16.8613 56.295 20.3296 58.427 23.0746C60.2209 25.3882 60.172 27.6532 59.917 30.2692C59.3027 36.6094 58.7373 42.9601 58.4567 49.3215C58.0805 57.7785 58.7437 66.2039 59.9255 74.587C60.2847 77.1396 59.7469 78.3069 57.2621 79.1169C54.7264 79.9417 52.0864 80.6523 49.4422 80.9208C43.1463 81.5574 36.8206 81.9 30.5056 82.3631C30.495 82.268 30.4865 82.1749 30.478 82.0798ZM14.26 6.22389C13.5224 6.35078 12.9081 6.49458 12.2853 6.54957C11.6732 6.60455 11.4797 6.87313 11.4202 7.48008C11.2735 8.98582 11.0759 10.4894 10.8102 11.9783C9.87918 17.2082 8.50182 22.2795 5.40275 26.7311C5.1902 27.0357 5.13281 27.52 5.16682 27.907C5.63656 33.0946 6.2466 38.2716 6.60582 43.4656C7.31151 53.6547 6.83325 63.8142 5.47077 73.9335C5.26034 75.4921 5.23483 75.5154 6.78224 75.9172C11.4734 77.1396 16.2899 77.3532 21.0936 77.5731C30.1591 77.9876 39.2225 77.9009 48.2562 76.9387C50.4944 76.6997 52.6986 76.1245 54.9134 75.6825C55.4469 75.5767 55.7424 75.2997 55.6361 74.6441C54.3438 66.5952 53.9739 58.4807 54.0483 50.345C54.1163 42.8692 54.8199 35.4335 55.7381 28.019C55.7955 27.5517 55.6446 27.0039 55.4342 26.5683C54.4054 24.4535 53.1662 22.4254 52.2968 20.2493C50.6793 16.2015 50.0161 11.9127 49.506 7.60274C49.4635 7.25168 49.2488 6.71875 48.9937 6.63416C48.2817 6.40153 47.5058 6.35924 46.6811 6.23023C46.4452 10.6734 45.3675 14.6979 42.4002 18.016C39.4245 21.3468 35.675 23.0662 31.2134 23.2861C27.4746 23.4701 24.0545 22.51 21.0405 20.3085C16.3005 16.8465 14.549 11.8937 14.26 6.22389ZM18.8065 7.68733C19.102 13.7843 23.9291 19.2997 30.9265 19.0459C38.0216 18.7879 42.0793 12.6402 42.1112 7.67887C34.3486 10.1067 26.5797 10.0644 18.8065 7.68733ZM35.7345 45.6227L31.2177 51.6118H27.4554L31.9722 45.6227H35.7345ZM38.7379 50.1145C38.1087 50.1145 37.7644 49.4018 38.1364 48.9133L40.6275 45.6205H36.8653L35.167 47.8622C34.7589 48.4015 34.7589 48.8202 35.167 49.3616L36.2893 50.8462C36.8589 51.6054 37.4222 51.6076 38.3702 51.6076H41.0037C43.259 51.6076 44.7681 50.1082 44.7681 47.8644V46.3692C44.7681 44.1233 43.2632 42.6239 41.0037 42.6239H37.6177C37.4626 42.6239 37.2415 42.6239 37.0545 42.81C36.8674 42.9982 36.8674 43.216 36.8674 43.3704V44.1212H41.0059C41.4756 44.1212 41.7604 44.4003 41.7604 44.8698V49.3638C41.7604 49.8332 41.4778 50.1145 41.0059 50.1145H38.7379ZM24.452 47.1178C25.0812 47.1178 25.4255 47.8284 25.0536 48.3169L22.5603 51.6097H26.3246L28.023 49.3659C28.4332 48.8287 28.4311 48.41 28.023 47.8707L26.9007 46.384C26.331 45.6248 25.7656 45.6227 24.8176 45.6227H17.6694C17.5142 45.6227 17.2931 45.6227 17.1061 45.8067C16.9169 45.9928 16.9169 46.2148 16.9169 46.3713V47.1199H18.4239V54.6106H21.4358V47.1178H24.452Z" fill="white"/>
</g>
<defs>
<clipPath id="clip0">
<rect width="59.2606" height="80.8827" fill="white" transform="translate(0.781799)"/>
</clipPath>
</defs>
</svg>
